# xmcd CD database file
#
# Track frame offsets:
#	150
#	56049
#	83792
#	101848
#	118747
#	134386
#	156669
#	174384
#	183922
#	208103
#
# Disc length: 3004 seconds
#
# Revision: 1
# Processed by: cddbd v1.5.2PL0 Copyright (c) Steve Scherf et al.
# Submitted via: CDex 1.51
#
DISCID=900bba0a
DTITLE=Gaetano Donizetti - Musique de chambre
DYEAR=1900
DGENRE=Classique
TTITLE0=Amusement pathétique, tiré de Anna Bolena pour violon et cordes
TTITLE1=Quintette pour cordes en do majeur - Allegro
TTITLE2=Quintette pour cordes avec guitare en do majeur - I. Larghetto - Allegro
TTITLE3=Quintette pour cordes avec guitare en do majeur - II. Andante - Allegro
TTITLE4=Quintette pour cordes avec guitare en do majeur - III. Andante - Allegro
TTITLE5=Quintette pour cordes avec guitare en do majeur - IV. Largo - Allegro
TTITLE6=Quintette pour cordes avec guitare en do majeur - V. Larghetto - Allegro
TTITLE7=Quintette pour cordes avec guitare en do majeur - VI. Andante - Allegro quasi presto
TTITLE8=Symphonie pour vents en ré majeur - Andante-Allegro
TTITLE9=Larghetto pour vents en fa majeur
EXTD=
EXTT0=
EXTT1=
EXTT2=
EXTT3=
EXTT4=
EXTT5=
EXTT6=
EXTT7=
EXTT8=
EXTT9=
PLAYORDER=
